<svg width="318" height="98" viewBox="0 0 318 98" fill="none" xmlns="http://www.w3.org/2000/svg">
<path d="M13.2 52.472C11.3227 52.472 9.70933 52.824 8.36 53.528C7.01067 54.2613 5.896 55.3027 5.016 56.652C4.136 58.0013 3.49067 59.6587 3.08 61.624C2.66933 63.5893 2.464 65.8333 2.464 68.356C2.464 70.8493 2.66933 73.0787 3.08 75.044C3.49067 77.0387 4.136 78.7107 5.016 80.06C5.896 81.4093 7.01067 82.436 8.36 83.14C9.70933 83.8733 11.3227 84.24 13.2 84.24C15.0773 84.24 16.6907 83.8733 18.04 83.14C19.3893 82.436 20.504 81.4093 21.384 80.06C22.264 78.7107 22.9093 77.0387 23.32 75.044C23.7307 73.0787 23.936 70.8493 23.936 68.356C23.936 65.8333 23.7307 63.5893 23.32 61.624C22.9093 59.6587 22.264 58.0013 21.384 56.652C20.504 55.3027 19.3893 54.2613 18.04 53.528C16.6907 52.824 15.0773 52.472 13.2 52.472ZM13.2 55.684C14.432 55.684 15.4733 55.9187 16.324 56.388C17.1747 56.8867 17.8787 57.576 18.436 58.456C18.9933 59.336 19.3893 60.392 19.624 61.624C19.888 62.8853 20.02 64.2933 20.02 65.848V70.864C20.02 72.3893 19.888 73.7827 19.624 75.044C19.3893 76.3053 18.9933 77.376 18.436 78.256C17.8787 79.136 17.1747 79.8107 16.324 80.28C15.4733 80.7787 14.432 81.028 13.2 81.028C11.968 81.028 10.9267 80.7787 10.076 80.28C9.22533 79.8107 8.52133 79.136 7.964 78.256C7.40667 77.376 6.996 76.3053 6.732 75.044C6.49733 73.7827 6.38 72.3893 6.38 70.864V65.848C6.38 64.2933 6.49733 62.8853 6.732 61.624C6.996 60.392 7.40667 59.336 7.964 58.456C8.52133 57.576 9.22533 56.8867 10.076 56.388C10.9267 55.9187 11.968 55.684 13.2 55.684ZM30.5628 75.704H34.0828V72.008H34.2588C35.7255 74.824 38.0575 76.232 41.2548 76.232C44.0415 76.232 46.2121 75.1907 47.7668 73.108C49.3508 71.0253 50.1428 68.1067 50.1428 64.352C50.1428 60.5973 49.3508 57.6787 47.7668 55.596C46.2121 53.5133 44.0415 52.472 41.2548 52.472C38.0575 52.472 35.7255 53.88 34.2588 56.696H34.0828V44.2H30.5628V75.704ZM39.8908 55.596C41.9441 55.596 43.5281 56.212 44.6428 57.444C45.7868 58.7053 46.3588 60.3627 46.3588 62.416V66.288C46.3588 68.3413 45.7868 69.984 44.6428 71.216C43.5281 72.4773 41.9441 73.108 39.8908 73.108C39.0988 73.108 38.3508 73.0053 37.6468 72.8C36.9428 72.5947 36.3268 72.2867 35.7988 71.876C35.2708 71.4947 34.8455 71.0107 34.5228 70.424C34.2295 69.8667 34.0828 69.2067 34.0828 68.444V60.26C34.0828 59.4973 34.2295 58.8227 34.5228 58.236C34.8455 57.6787 35.2708 57.1947 35.7988 56.784C36.3268 56.4027 36.9428 56.1093 37.6468 55.904C38.3508 55.6987 39.0988 55.596 39.8908 55.596ZM56.9456 75.704H60.4656V72.008H60.6416C62.1083 74.824 64.4403 76.232 67.6376 76.232C70.4243 76.232 72.595 75.1907 74.1496 73.108C75.7336 71.0253 76.5256 68.1067 76.5256 64.352C76.5256 60.5973 75.7336 57.6787 74.1496 55.596C72.595 53.5133 70.4243 52.472 67.6376 52.472C64.4403 52.472 62.1083 53.88 60.6416 56.696H60.4656V44.2H56.9456V75.704ZM66.2736 55.596C68.327 55.596 69.911 56.212 71.0256 57.444C72.1696 58.7053 72.7416 60.3627 72.7416 62.416V66.288C72.7416 68.3413 72.1696 69.984 71.0256 71.216C69.911 72.4773 68.327 73.108 66.2736 73.108C65.4816 73.108 64.7336 73.0053 64.0296 72.8C63.3256 72.5947 62.7096 72.2867 62.1816 71.876C61.6536 71.4947 61.2283 71.0107 60.9056 70.424C60.6123 69.8667 60.4656 69.2067 60.4656 68.444V60.26C60.4656 59.4973 60.6123 58.8227 60.9056 58.236C61.2283 57.6787 61.6536 57.1947 62.1816 56.784C62.7096 56.4027 63.3256 56.1093 64.0296 55.904C64.7336 55.6987 65.4816 55.596 66.2736 55.596ZM92.3484 52.472C90.7644 52.472 89.3271 52.7507 88.0364 53.308C86.7751 53.8653 85.6898 54.6573 84.7804 55.684C83.9004 56.74 83.2258 57.9867 82.7564 59.424C82.2871 60.8907 82.0524 62.5333 82.0524 64.352C82.0524 66.1413 82.2871 67.7693 82.7564 69.236C83.2258 70.7027 83.9004 71.9493 84.7804 72.976C85.6898 74.032 86.7751 74.8387 88.0364 75.396C89.3271 75.9533 90.7644 76.232 92.3484 76.232C93.9324 76.232 95.3551 75.9533 96.6164 75.396C97.9071 74.8387 98.9924 74.032 99.8724 72.976C100.782 71.9493 101.471 70.7027 101.94 69.236C102.41 67.7693 102.644 66.1413 102.644 64.352C102.644 62.5333 102.41 60.8907 101.94 59.424C101.471 57.9867 100.782 56.74 99.8724 55.684C98.9924 54.6573 97.9071 53.8653 96.6164 53.308C95.3551 52.7507 93.9324 52.472 92.3484 52.472ZM92.3484 55.508C94.3138 55.508 95.8978 56.0947 97.1004 57.268C98.3031 58.4413 98.9044 60.26 98.9044 62.724V65.98C98.9044 68.444 98.3031 70.2627 97.1004 71.436C95.8978 72.6093 94.3138 73.196 92.3484 73.196C90.3831 73.196 88.7991 72.6093 87.5964 71.436C86.3938 70.2627 85.7924 68.444 85.7924 65.98V62.724C85.7924 60.26 86.3938 58.4413 87.5964 57.268C88.7991 56.0947 90.3831 55.508 92.3484 55.508ZM118.995 52.472C116.619 52.472 114.566 52.868 112.835 53.66C111.134 54.4813 109.682 55.5667 108.479 56.916L110.855 58.984C111.941 57.84 113.129 56.96 114.419 56.344C115.71 55.728 117.265 55.42 119.083 55.42C120.843 55.42 122.281 55.728 123.395 56.344C124.539 56.9893 125.111 57.9867 125.111 59.336C125.111 59.9227 124.994 60.4067 124.759 60.788C124.554 61.1987 124.261 61.5213 123.879 61.756C123.498 61.9907 123.073 62.1667 122.603 62.284C122.134 62.4307 121.635 62.548 121.107 62.636L117.543 63.164C116.751 63.2813 115.886 63.4427 114.947 63.648C114.038 63.8533 113.202 64.176 112.439 64.616C111.677 65.0853 111.031 65.7013 110.503 66.464C110.005 67.2267 109.755 68.224 109.755 69.456C109.755 70.6 109.975 71.5827 110.415 72.404C110.885 73.2547 111.53 73.9587 112.351 74.516C113.173 75.1027 114.141 75.528 115.255 75.792C116.37 76.0853 117.587 76.232 118.907 76.232C120.961 76.232 122.735 75.9093 124.231 75.264C125.757 74.6187 127.062 73.724 128.147 72.58L125.859 70.424C125.595 70.7467 125.258 71.0693 124.847 71.392C124.466 71.744 123.982 72.052 123.395 72.316C122.838 72.6093 122.178 72.844 121.415 73.02C120.653 73.196 119.773 73.284 118.775 73.284C116.986 73.284 115.607 72.976 114.639 72.36C113.701 71.744 113.231 70.8493 113.231 69.676C113.231 69.0893 113.334 68.5907 113.539 68.18C113.774 67.7987 114.082 67.4907 114.463 67.256C114.845 67.0213 115.27 66.8307 115.739 66.684C116.238 66.5667 116.737 66.464 117.235 66.376L120.799 65.848C121.621 65.7307 122.486 65.5693 123.395 65.364C124.305 65.1587 125.141 64.8213 125.903 64.352C126.666 63.912 127.297 63.3107 127.795 62.548C128.323 61.7853 128.587 60.788 128.587 59.556C128.587 57.2973 127.707 55.552 125.947 54.32C124.217 53.088 121.899 52.472 118.995 52.472ZM146.522 80.72C145.495 80.72 144.777 80.9253 144.366 81.336C143.955 81.776 143.75 82.3187 143.75 82.964V83.668C143.75 84.3133 143.955 84.8413 144.366 85.252C144.777 85.692 145.495 85.912 146.522 85.912C147.549 85.912 148.267 85.692 148.678 85.252C149.089 84.8413 149.294 84.3133 149.294 83.668V82.964C149.294 82.3187 149.089 81.776 148.678 81.336C148.267 80.9253 147.549 80.72 146.522 80.72ZM136.578 55.992H144.762V72.712H136.578V75.704H148.282V55.992H155.938V53H136.578V55.992ZM172.597 53C170.866 53 169.59 53.484 168.769 54.452C167.977 55.42 167.581 56.6667 167.581 58.192V72.712H160.013V75.704H165.645C166.408 75.704 166.936 75.8507 167.229 76.144C167.552 76.4667 167.713 77.0093 167.713 77.772V83.712H171.101V75.704H181.441V72.712H171.101V55.992H181.441V53H172.597ZM198.276 52.472C196.633 52.472 195.152 52.7507 193.832 53.308C192.541 53.8653 191.426 54.6573 190.488 55.684C189.578 56.74 188.874 57.9867 188.376 59.424C187.877 60.8907 187.628 62.5187 187.628 64.308C187.628 66.1267 187.877 67.7693 188.376 69.236C188.904 70.7027 189.622 71.9493 190.532 72.976C191.441 74.032 192.526 74.8387 193.788 75.396C195.078 75.9533 196.501 76.232 198.056 76.232C199.581 76.232 200.96 75.9533 202.192 75.396C203.453 74.8387 204.524 74.0613 205.404 73.064C206.284 72.096 206.958 70.9373 207.428 69.588C207.897 68.2387 208.132 66.7573 208.132 65.144V63.472H191.324V62.416C191.324 61.4187 191.485 60.4947 191.808 59.644C192.13 58.7933 192.585 58.06 193.172 57.444C193.788 56.828 194.521 56.344 195.372 55.992C196.252 55.6693 197.22 55.508 198.276 55.508C199.801 55.508 201.121 55.86 202.236 56.564C203.35 57.268 204.201 58.236 204.788 59.468L207.384 57.708C206.709 56.1827 205.58 54.9213 203.996 53.924C202.441 52.956 200.534 52.472 198.276 52.472ZM198.056 73.328C197.088 73.328 196.193 73.152 195.372 72.8C194.55 72.448 193.832 71.964 193.216 71.348C192.629 70.732 192.16 69.9987 191.808 69.148C191.485 68.3267 191.324 67.4173 191.324 66.42V66.112H204.348V66.596C204.348 67.5933 204.186 68.5027 203.864 69.324C203.57 70.1453 203.145 70.8493 202.588 71.436C202.06 72.052 201.4 72.5213 200.608 72.844C199.845 73.1667 198.994 73.328 198.056 73.328Z" fill="#DBDBDB"/>
<path d="M220.8 73.416H220.316V53H214.684V83.712H222.604L229.6 63.296H230.084V83.712H235.716V53H227.796L220.8 73.416ZM252.199 52.472C248.385 52.472 245.496 53.528 243.531 55.64C241.565 57.752 240.583 60.6267 240.583 64.264C240.583 66.112 240.832 67.7693 241.331 69.236C241.859 70.732 242.592 71.9933 243.531 73.02C244.499 74.076 245.657 74.868 247.007 75.396C248.385 75.9533 249.925 76.232 251.627 76.232C253.328 76.232 254.853 75.9533 256.203 75.396C257.552 74.868 258.696 74.1053 259.635 73.108C260.573 72.1107 261.292 70.8933 261.791 69.456C262.319 68.048 262.583 66.464 262.583 64.704V62.768H247.051V62.372C247.051 60.9053 247.505 59.7173 248.415 58.808C249.324 57.928 250.659 57.488 252.419 57.488C253.768 57.488 254.927 57.7373 255.895 58.236C256.863 58.764 257.699 59.4533 258.403 60.304L261.923 56.476C261.043 55.3907 259.811 54.452 258.227 53.66C256.643 52.868 254.633 52.472 252.199 52.472ZM251.671 71.568C250.263 71.568 249.133 71.128 248.283 70.248C247.461 69.3973 247.051 68.2387 247.051 66.772V66.42H256.203V66.772C256.203 68.268 255.792 69.4413 254.971 70.292C254.179 71.1427 253.079 71.568 251.671 71.568ZM265.074 75.704H270.486L272.114 57.312H272.554L275.238 75.704H280.958L283.598 57.312H284.038L285.71 75.704H290.858L288.174 53H280.43L278.186 68.664H277.746L275.502 53H267.758L265.074 75.704ZM304.084 52.472C301.562 52.472 299.362 52.8533 297.484 53.616C295.636 54.3787 294.243 55.42 293.304 56.74L296.956 60.128C297.836 59.16 298.863 58.3973 300.036 57.84C301.239 57.312 302.603 57.048 304.128 57.048C305.419 57.048 306.431 57.2387 307.164 57.62C307.898 58.0307 308.264 58.6467 308.264 59.468C308.264 60.1133 308.015 60.5533 307.516 60.788C307.018 61.052 306.328 61.2573 305.448 61.404L301.796 61.976C300.77 62.1227 299.816 62.3427 298.936 62.636C298.056 62.9587 297.294 63.384 296.648 63.912C296.003 64.44 295.49 65.0853 295.108 65.848C294.727 66.6107 294.536 67.5347 294.536 68.62C294.536 70.996 295.446 72.8587 297.264 74.208C299.083 75.5573 301.635 76.232 304.92 76.232C307.15 76.232 309.042 75.924 310.596 75.308C312.18 74.7213 313.442 73.8707 314.38 72.756L311.124 69.06C310.45 69.7933 309.584 70.4093 308.528 70.908C307.472 71.4067 306.196 71.656 304.7 71.656C302.178 71.656 300.916 70.8933 300.916 69.368C300.916 68.6933 301.166 68.224 301.664 67.96C302.163 67.7253 302.852 67.5347 303.732 67.388L307.34 66.816C308.367 66.6693 309.32 66.4347 310.2 66.112C311.08 65.8187 311.843 65.408 312.488 64.88C313.163 64.352 313.691 63.7067 314.072 62.944C314.454 62.1813 314.644 61.2573 314.644 60.172C314.644 57.796 313.72 55.9187 311.872 54.54C310.054 53.1613 307.458 52.472 304.084 52.472Z" fill="#DBDBDB"/>
<path d="M13.2 45.528C11.3227 45.528 9.70933 45.176 8.36 44.472C7.01067 43.7387 5.896 42.6973 5.016 41.348C4.136 39.9987 3.49067 38.3413 3.08 36.376C2.66933 34.4107 2.464 32.1667 2.464 29.644C2.464 27.1507 2.66933 24.9213 3.08 22.956C3.49067 20.9613 4.136 19.2893 5.016 17.94C5.896 16.5907 7.01067 15.564 8.36 14.86C9.70933 14.1267 11.3227 13.76 13.2 13.76C15.0773 13.76 16.6907 14.1267 18.04 14.86C19.3893 15.564 20.504 16.5907 21.384 17.94C22.264 19.2893 22.9093 20.9613 23.32 22.956C23.7307 24.9213 23.936 27.1507 23.936 29.644C23.936 32.1667 23.7307 34.4107 23.32 36.376C22.9093 38.3413 22.264 39.9987 21.384 41.348C20.504 42.6973 19.3893 43.7387 18.04 44.472C16.6907 45.176 15.0773 45.528 13.2 45.528ZM13.2 42.316C14.432 42.316 15.4733 42.0813 16.324 41.612C17.1747 41.1133 17.8787 40.424 18.436 39.544C18.9933 38.664 19.3893 37.608 19.624 36.376C19.888 35.1147 20.02 33.7067 20.02 32.152V27.136C20.02 25.6107 19.888 24.2173 19.624 22.956C19.3893 21.6947 18.9933 20.624 18.436 19.744C17.8787 18.864 17.1747 18.1893 16.324 17.72C15.4733 17.2213 14.432 16.972 13.2 16.972C11.968 16.972 10.9267 17.2213 10.076 17.72C9.22533 18.1893 8.52133 18.864 7.964 19.744C7.40667 20.624 6.996 21.6947 6.732 22.956C6.49733 24.2173 6.38 25.6107 6.38 27.136V32.152C6.38 33.7067 6.49733 35.1147 6.732 36.376C6.996 37.608 7.40667 38.664 7.964 39.544C8.52133 40.424 9.22533 41.1133 10.076 41.612C10.9267 42.0813 11.968 42.316 13.2 42.316ZM30.5628 22.296H34.0828V25.992H34.2588C35.7255 23.176 38.0575 21.768 41.2548 21.768C44.0415 21.768 46.2121 22.8093 47.7668 24.892C49.3508 26.9747 50.1428 29.8933 50.1428 33.648C50.1428 37.4027 49.3508 40.3213 47.7668 42.404C46.2121 44.4867 44.0415 45.528 41.2548 45.528C38.0575 45.528 35.7255 44.12 34.2588 41.304H34.0828V53.8H30.5628V22.296ZM39.8908 42.404C41.9441 42.404 43.5281 41.788 44.6428 40.556C45.7868 39.2947 46.3588 37.6373 46.3588 35.584V31.712C46.3588 29.6587 45.7868 28.016 44.6428 26.784C43.5281 25.5227 41.9441 24.892 39.8908 24.892C39.0988 24.892 38.3508 24.9947 37.6468 25.2C36.9428 25.4053 36.3268 25.7133 35.7988 26.124C35.2708 26.5053 34.8455 26.9893 34.5228 27.576C34.2295 28.1333 34.0828 28.7933 34.0828 29.556V37.74C34.0828 38.5027 34.2295 39.1773 34.5228 39.764C34.8455 40.3213 35.2708 40.8053 35.7988 41.216C36.3268 41.5973 36.9428 41.8907 37.6468 42.096C38.3508 42.3013 39.0988 42.404 39.8908 42.404ZM56.9456 22.296H60.4656V25.992H60.6416C62.1083 23.176 64.4403 21.768 67.6376 21.768C70.4243 21.768 72.595 22.8093 74.1496 24.892C75.7336 26.9747 76.5256 29.8933 76.5256 33.648C76.5256 37.4027 75.7336 40.3213 74.1496 42.404C72.595 44.4867 70.4243 45.528 67.6376 45.528C64.4403 45.528 62.1083 44.12 60.6416 41.304H60.4656V53.8H56.9456V22.296ZM66.2736 42.404C68.327 42.404 69.911 41.788 71.0256 40.556C72.1696 39.2947 72.7416 37.6373 72.7416 35.584V31.712C72.7416 29.6587 72.1696 28.016 71.0256 26.784C69.911 25.5227 68.327 24.892 66.2736 24.892C65.4816 24.892 64.7336 24.9947 64.0296 25.2C63.3256 25.4053 62.7096 25.7133 62.1816 26.124C61.6536 26.5053 61.2283 26.9893 60.9056 27.576C60.6123 28.1333 60.4656 28.7933 60.4656 29.556V37.74C60.4656 38.5027 60.6123 39.1773 60.9056 39.764C61.2283 40.3213 61.6536 40.8053 62.1816 41.216C62.7096 41.5973 63.3256 41.8907 64.0296 42.096C64.7336 42.3013 65.4816 42.404 66.2736 42.404ZM92.3484 45.528C90.7644 45.528 89.3271 45.2493 88.0364 44.692C86.7751 44.1347 85.6898 43.3427 84.7804 42.316C83.9004 41.26 83.2258 40.0133 82.7564 38.576C82.2871 37.1093 82.0524 35.4667 82.0524 33.648C82.0524 31.8587 82.2871 30.2307 82.7564 28.764C83.2258 27.2973 83.9004 26.0507 84.7804 25.024C85.6898 23.968 86.7751 23.1613 88.0364 22.604C89.3271 22.0467 90.7644 21.768 92.3484 21.768C93.9324 21.768 95.3551 22.0467 96.6164 22.604C97.9071 23.1613 98.9924 23.968 99.8724 25.024C100.782 26.0507 101.471 27.2973 101.94 28.764C102.41 30.2307 102.644 31.8587 102.644 33.648C102.644 35.4667 102.41 37.1093 101.94 38.576C101.471 40.0133 100.782 41.26 99.8724 42.316C98.9924 43.3427 97.9071 44.1347 96.6164 44.692C95.3551 45.2493 93.9324 45.528 92.3484 45.528ZM92.3484 42.492C94.3138 42.492 95.8978 41.9053 97.1004 40.732C98.3031 39.5587 98.9044 37.74 98.9044 35.276V32.02C98.9044 29.556 98.3031 27.7373 97.1004 26.564C95.8978 25.3907 94.3138 24.804 92.3484 24.804C90.3831 24.804 88.7991 25.3907 87.5964 26.564C86.3938 27.7373 85.7924 29.556 85.7924 32.02V35.276C85.7924 37.74 86.3938 39.5587 87.5964 40.732C88.7991 41.9053 90.3831 42.492 92.3484 42.492ZM118.995 45.528C116.619 45.528 114.566 45.132 112.835 44.34C111.134 43.5187 109.682 42.4333 108.479 41.084L110.855 39.016C111.941 40.16 113.129 41.04 114.419 41.656C115.71 42.272 117.265 42.58 119.083 42.58C120.843 42.58 122.281 42.272 123.395 41.656C124.539 41.0107 125.111 40.0133 125.111 38.664C125.111 38.0773 124.994 37.5933 124.759 37.212C124.554 36.8013 124.261 36.4787 123.879 36.244C123.498 36.0093 123.073 35.8333 122.603 35.716C122.134 35.5693 121.635 35.452 121.107 35.364L117.543 34.836C116.751 34.7187 115.886 34.5573 114.947 34.352C114.038 34.1467 113.202 33.824 112.439 33.384C111.677 32.9147 111.031 32.2987 110.503 31.536C110.005 30.7733 109.755 29.776 109.755 28.544C109.755 27.4 109.975 26.4173 110.415 25.596C110.885 24.7453 111.53 24.0413 112.351 23.484C113.173 22.8973 114.141 22.472 115.255 22.208C116.37 21.9147 117.587 21.768 118.907 21.768C120.961 21.768 122.735 22.0907 124.231 22.736C125.757 23.3813 127.062 24.276 128.147 25.42L125.859 27.576C125.595 27.2533 125.258 26.9307 124.847 26.608C124.466 26.256 123.982 25.948 123.395 25.684C122.838 25.3907 122.178 25.156 121.415 24.98C120.653 24.804 119.773 24.716 118.775 24.716C116.986 24.716 115.607 25.024 114.639 25.64C113.701 26.256 113.231 27.1507 113.231 28.324C113.231 28.9107 113.334 29.4093 113.539 29.82C113.774 30.2013 114.082 30.5093 114.463 30.744C114.845 30.9787 115.27 31.1693 115.739 31.316C116.238 31.4333 116.737 31.536 117.235 31.624L120.799 32.152C121.621 32.2693 122.486 32.4307 123.395 32.636C124.305 32.8413 125.141 33.1787 125.903 33.648C126.666 34.088 127.297 34.6893 127.795 35.452C128.323 36.2147 128.587 37.212 128.587 38.444C128.587 40.7027 127.707 42.448 125.947 43.68C124.217 44.912 121.899 45.528 118.995 45.528ZM146.522 17.28C145.495 17.28 144.777 17.0747 144.366 16.664C143.955 16.224 143.75 15.6813 143.75 15.036V14.332C143.75 13.6867 143.955 13.1587 144.366 12.748C144.777 12.308 145.495 12.088 146.522 12.088C147.549 12.088 148.267 12.308 148.678 12.748C149.089 13.1587 149.294 13.6867 149.294 14.332V15.036C149.294 15.6813 149.089 16.224 148.678 16.664C148.267 17.0747 147.549 17.28 146.522 17.28ZM136.578 42.008H144.762V25.288H136.578V22.296H148.282V42.008H155.938V45H136.578V42.008ZM172.597 45C170.866 45 169.59 44.516 168.769 43.548C167.977 42.58 167.581 41.3333 167.581 39.808V25.288H160.013V22.296H165.645C166.408 22.296 166.936 22.1493 167.229 21.856C167.552 21.5333 167.713 20.9907 167.713 20.228V14.288H171.101V22.296H181.441V25.288H171.101V42.008H181.441V45H172.597ZM198.276 45.528C196.633 45.528 195.152 45.2493 193.832 44.692C192.541 44.1347 191.426 43.3427 190.488 42.316C189.578 41.26 188.874 40.0133 188.376 38.576C187.877 37.1093 187.628 35.4813 187.628 33.692C187.628 31.8733 187.877 30.2307 188.376 28.764C188.904 27.2973 189.622 26.0507 190.532 25.024C191.441 23.968 192.526 23.1613 193.788 22.604C195.078 22.0467 196.501 21.768 198.056 21.768C199.581 21.768 200.96 22.0467 202.192 22.604C203.453 23.1613 204.524 23.9387 205.404 24.936C206.284 25.904 206.958 27.0627 207.428 28.412C207.897 29.7613 208.132 31.2427 208.132 32.856V34.528H191.324V35.584C191.324 36.5813 191.485 37.5053 191.808 38.356C192.13 39.2067 192.585 39.94 193.172 40.556C193.788 41.172 194.521 41.656 195.372 42.008C196.252 42.3307 197.22 42.492 198.276 42.492C199.801 42.492 201.121 42.14 202.236 41.436C203.35 40.732 204.201 39.764 204.788 38.532L207.384 40.292C206.709 41.8173 205.58 43.0787 203.996 44.076C202.441 45.044 200.534 45.528 198.276 45.528ZM198.056 24.672C197.088 24.672 196.193 24.848 195.372 25.2C194.55 25.552 193.832 26.036 193.216 26.652C192.629 27.268 192.16 28.0013 191.808 28.852C191.485 29.6733 191.324 30.5827 191.324 31.58V31.888H204.348V31.404C204.348 30.4067 204.186 29.4973 203.864 28.676C203.57 27.8547 203.145 27.1507 202.588 26.564C202.06 25.948 201.4 25.4787 200.608 25.156C199.845 24.8333 198.994 24.672 198.056 24.672Z" fill="black"/>
<path d="M220.8 24.584H220.316V45H214.684V14.288H222.604L229.6 34.704H230.084V14.288H235.716V45H227.796L220.8 24.584ZM252.199 45.528C248.385 45.528 245.496 44.472 243.531 42.36C241.565 40.248 240.583 37.3733 240.583 33.736C240.583 31.888 240.832 30.2307 241.331 28.764C241.859 27.268 242.592 26.0067 243.531 24.98C244.499 23.924 245.657 23.132 247.007 22.604C248.385 22.0467 249.925 21.768 251.627 21.768C253.328 21.768 254.853 22.0467 256.203 22.604C257.552 23.132 258.696 23.8947 259.635 24.892C260.573 25.8893 261.292 27.1067 261.791 28.544C262.319 29.952 262.583 31.536 262.583 33.296V35.232H247.051V35.628C247.051 37.0947 247.505 38.2827 248.415 39.192C249.324 40.072 250.659 40.512 252.419 40.512C253.768 40.512 254.927 40.2627 255.895 39.764C256.863 39.236 257.699 38.5467 258.403 37.696L261.923 41.524C261.043 42.6093 259.811 43.548 258.227 44.34C256.643 45.132 254.633 45.528 252.199 45.528ZM251.671 26.432C250.263 26.432 249.133 26.872 248.283 27.752C247.461 28.6027 247.051 29.7613 247.051 31.228V31.58H256.203V31.228C256.203 29.732 255.792 28.5587 254.971 27.708C254.179 26.8573 253.079 26.432 251.671 26.432ZM265.074 22.296H270.486L272.114 40.688H272.554L275.238 22.296H280.958L283.598 40.688H284.038L285.71 22.296H290.858L288.174 45H280.43L278.186 29.336H277.746L275.502 45H267.758L265.074 22.296ZM304.084 45.528C301.562 45.528 299.362 45.1467 297.484 44.384C295.636 43.6213 294.243 42.58 293.304 41.26L296.956 37.872C297.836 38.84 298.863 39.6027 300.036 40.16C301.239 40.688 302.603 40.952 304.128 40.952C305.419 40.952 306.431 40.7613 307.164 40.38C307.898 39.9693 308.264 39.3533 308.264 38.532C308.264 37.8867 308.015 37.4467 307.516 37.212C307.018 36.948 306.328 36.7427 305.448 36.596L301.796 36.024C300.77 35.8773 299.816 35.6573 298.936 35.364C298.056 35.0413 297.294 34.616 296.648 34.088C296.003 33.56 295.49 32.9147 295.108 32.152C294.727 31.3893 294.536 30.4653 294.536 29.38C294.536 27.004 295.446 25.1413 297.264 23.792C299.083 22.4427 301.635 21.768 304.92 21.768C307.15 21.768 309.042 22.076 310.596 22.692C312.18 23.2787 313.442 24.1293 314.38 25.244L311.124 28.94C310.45 28.2067 309.584 27.5907 308.528 27.092C307.472 26.5933 306.196 26.344 304.7 26.344C302.178 26.344 300.916 27.1067 300.916 28.632C300.916 29.3067 301.166 29.776 301.664 30.04C302.163 30.2747 302.852 30.4653 303.732 30.612L307.34 31.184C308.367 31.3307 309.32 31.5653 310.2 31.888C311.08 32.1813 311.843 32.592 312.488 33.12C313.163 33.648 313.691 34.2933 314.072 35.056C314.454 35.8187 314.644 36.7427 314.644 37.828C314.644 40.204 313.72 42.0813 311.872 43.46C310.054 44.8387 307.458 45.528 304.084 45.528Z" fill="black"/>
</svg>
